# xmcd
# Track frame offsets:
# 150
# 23721
# 40455
# 56903
# 78392
# 94307
# 113647
# 136228
# 151862
# 178285
# 193393
# 213746
# 228005
# 244591
# 257757
# 278715
# 297312
# 316710
#
# Disc length: 4505 seconds
# Revision: 0
# Processed by: cddbd v1.5.2PL0 Copyright (c) Steve Scherf et al.
# Submitted via: VisiTrax 2.10.3.257 - For more info visit www.synapsa.com
#
DISCID=03119712
DTITLE=Southside Johnny and The Asbury Jukes - Jukebox - disc 2 of 5
DYEAR=2007
DGENRE=
TTITLE0=Security (demo)
TTITLE1=Vertigo (demo)
TTITLE2=Long distance (demo)
TTITLE3=Let me hide (demo)
TTITLE4=I played the fool (live)
TTITLE5=Hearts of stone (live)
TTITLE6=Talk to me (live)
TTITLE7=All I wants is everything (live)
TTITLE8=Love is a sacrifice (live)
TTITLE9=I'm so anxious (live)
TTITLE10=Trash it up (live)
TTITLE11=New Romeo (live)
TTITLE12=Future in your eyes (demo)
TTITLE13=Expressway to your heart (demo)
TTITLE14=You can count on me (demo)
TTITLE15=Hard to find (demo)
TTITLE16=Walk away Renee (demo)
TTITLE17=Under the sun (demo)
EXTD=submitted by Francesco Magni
EXTT0=
EXTT1=
EXTT2=
EXTT3=
EXTT4=
EXTT5=
EXTT6=
EXTT7=
EXTT8=
EXTT9=
EXTT10=
EXTT11=
EXTT12=
EXTT13=
EXTT14=
EXTT15=
EXTT16=
EXTT17=
PLAYORDER=
